<svg width="24" height="24" viewBox="0 0 24 24" fill="none" xmlns="http://www.w3.org/2000/svg">
<g clip-path="url(#clip0_530_8356)">
<path d="M12 0C13.5044 2.03016e-05 14.9542 0.565655 16.0615 1.58398C17.1686 2.60225 17.8527 3.99912 17.9785 5.49805C18.1043 6.99722 17.6624 8.48907 16.7402 9.67773C15.8181 10.8663 14.4833 11.6653 13 11.916V13H17C18.0454 13.0016 19.0638 13.3308 19.9131 13.9404C20.7624 14.5502 21.4005 15.4103 21.7363 16.4004V16.3975C22.594 16.8114 23.2758 17.5179 23.6592 18.3896C24.0426 19.2615 24.1028 20.2414 23.8281 21.1533C23.5534 22.0652 22.9622 22.8492 22.1611 23.3643C21.3599 23.8793 20.4008 24.0917 19.457 23.9629C18.5134 23.8341 17.6466 23.3729 17.0127 22.6621C16.3788 21.9512 16.0193 21.0372 15.999 20.085C15.9984 20.0567 15.999 20.0282 15.999 20C15.999 20.1677 15.9891 20.336 15.9678 20.5039C15.8451 21.4695 15.3748 22.3574 14.6445 23.001C13.914 23.6445 12.9735 24 12 24C11.0264 24 10.086 23.6446 9.35547 23.001C8.62515 22.3574 8.15488 21.4696 8.03223 20.5039C8.01301 20.3526 8.00286 20.201 8.00098 20.0498C8.00083 20.0625 8.00125 20.0752 8.00098 20.0879C7.9807 21.0402 7.62122 21.9541 6.9873 22.665C6.3534 23.3759 5.48664 23.837 4.54297 23.9658C3.5992 24.0946 2.64014 23.8822 1.83887 23.3672C1.03777 22.8521 0.44656 22.0682 0.171875 21.1562C-0.10278 20.2443 -0.0426142 19.2644 0.34082 18.3926C0.724266 17.5208 1.40592 16.8143 2.26367 16.4004C2.59946 15.4105 3.23684 14.5501 4.08594 13.9404C4.93525 13.3307 5.95449 13.0016 7 13H11V11.916C9.5166 11.6653 8.18096 10.8664 7.25879 9.67773C6.33676 8.48911 5.89471 6.9971 6.02051 5.49805C6.14634 3.99906 6.83129 2.60228 7.93848 1.58398C9.04586 0.565637 10.4956 0 12 0ZM20.7656 18.1523C20.4002 18.001 19.9973 17.9609 19.6094 18.0381C19.2216 18.1153 18.8656 18.3063 18.5859 18.5859C18.3062 18.8656 18.1153 19.2224 18.0381 19.6104C17.961 19.9982 18.001 20.4003 18.1523 20.7656C18.3037 21.131 18.5599 21.4434 18.8887 21.6631C19.2176 21.8828 19.6044 22 20 22C20.5304 22 21.039 21.7891 21.4141 21.4141C21.7891 21.039 22 20.5304 22 20C22 19.6045 21.8828 19.2175 21.6631 18.8887C21.4434 18.5599 21.1309 18.3037 20.7656 18.1523ZM4 18C3.60445 18 3.21756 18.1172 2.88867 18.3369C2.55988 18.5566 2.30374 18.8691 2.15234 19.2344C2.00097 19.5998 1.96092 20.0027 2.03809 20.3906C2.11529 20.7785 2.3063 21.1344 2.58594 21.4141C2.86557 21.6937 3.22153 21.8847 3.60938 21.9619C3.99734 22.0391 4.40017 21.999 4.76562 21.8477C5.13092 21.6963 5.44339 21.4401 5.66309 21.1113C5.88284 20.7824 6 20.3956 6 20C5.99998 19.4696 5.78912 18.961 5.41406 18.5859C5.03901 18.2109 4.5304 18 4 18ZM12 18C11.6045 18 11.2176 18.1172 10.8887 18.3369C10.5599 18.5566 10.3037 18.8691 10.1523 19.2344C10.001 19.5998 9.96092 20.0027 10.0381 20.3906C10.1153 20.7785 10.3063 21.1344 10.5859 21.4141C10.8656 21.6937 11.2215 21.8847 11.6094 21.9619C11.9973 22.0391 12.4002 21.999 12.7656 21.8477C13.1309 21.6963 13.4434 21.4401 13.6631 21.1113C13.8828 20.7824 14 20.3956 14 20C14 19.4696 13.7891 18.961 13.4141 18.5859C13.039 18.2109 12.5304 18 12 18ZM7 15C6.56409 15.0006 6.13347 15.0963 5.73828 15.2803C5.34296 15.4644 4.99207 15.733 4.71094 16.0664C5.64823 16.2352 6.49455 16.7327 7.09766 17.4697C7.66756 18.1664 7.98483 19.0338 8.00098 19.9307C8.01438 19.1581 8.25119 18.4012 8.68945 17.7549C9.23587 16.9492 10.0574 16.3703 11 16.127V15H7ZM13 15V16.127C13.9426 16.3703 14.7641 16.9492 15.3105 17.7549C15.7488 18.4012 15.9856 19.1581 15.999 19.9307C16.0145 19.0327 16.3318 18.1642 16.9023 17.4668C17.5055 16.7297 18.3518 16.2323 19.2891 16.0635C19.0077 15.7307 18.657 15.4629 18.2617 15.2793C17.8664 15.0957 17.4358 15.0003 17 15H13ZM12.7803 2.07715C12.0043 1.92281 11.1997 2.00194 10.4688 2.30469C9.7381 2.60743 9.11326 3.11978 8.67383 3.77734C8.23432 4.43512 8.00002 5.2089 8 6C8 7.06087 8.42173 8.07798 9.17188 8.82812C9.92202 9.57827 10.9391 10 12 10C12.7911 9.99998 13.5649 9.76568 14.2227 9.32617C14.8802 8.88674 15.3926 8.26189 15.6953 7.53125C15.9981 6.80035 16.0772 5.99565 15.9229 5.21973C15.7685 4.44382 15.3875 3.73128 14.8281 3.17188C14.2687 2.61247 13.5562 2.23149 12.7803 2.07715Z" fill="#6D758F"/>
<path d="M12 0C13.5044 2.03016e-05 14.9542 0.565655 16.0615 1.58398C17.1686 2.60225 17.8527 3.99912 17.9785 5.49805C18.1043 6.99722 17.6624 8.48907 16.7402 9.67773C15.8181 10.8663 14.4833 11.6653 13 11.916V13H17C18.0454 13.0016 19.0638 13.3308 19.9131 13.9404C20.7624 14.5502 21.4005 15.4103 21.7363 16.4004V16.3975C22.594 16.8114 23.2758 17.5179 23.6592 18.3896C24.0426 19.2615 24.1028 20.2414 23.8281 21.1533C23.5534 22.0652 22.9622 22.8492 22.1611 23.3643C21.3599 23.8793 20.4008 24.0917 19.457 23.9629C18.5134 23.8341 17.6466 23.3729 17.0127 22.6621C16.3788 21.9512 16.0193 21.0372 15.999 20.085C15.9984 20.0567 15.999 20.0282 15.999 20C15.999 20.1677 15.9891 20.336 15.9678 20.5039C15.8451 21.4695 15.3748 22.3574 14.6445 23.001C13.914 23.6445 12.9735 24 12 24C11.0264 24 10.086 23.6446 9.35547 23.001C8.62515 22.3574 8.15488 21.4696 8.03223 20.5039C8.01301 20.3526 8.00286 20.201 8.00098 20.0498C8.00083 20.0625 8.00125 20.0752 8.00098 20.0879C7.9807 21.0402 7.62122 21.9541 6.9873 22.665C6.3534 23.3759 5.48664 23.837 4.54297 23.9658C3.5992 24.0946 2.64014 23.8822 1.83887 23.3672C1.03777 22.8521 0.44656 22.0682 0.171875 21.1562C-0.10278 20.2443 -0.0426142 19.2644 0.34082 18.3926C0.724266 17.5208 1.40592 16.8143 2.26367 16.4004C2.59946 15.4105 3.23684 14.5501 4.08594 13.9404C4.93525 13.3307 5.95449 13.0016 7 13H11V11.916C9.5166 11.6653 8.18096 10.8664 7.25879 9.67773C6.33676 8.48911 5.89471 6.9971 6.02051 5.49805C6.14634 3.99906 6.83129 2.60228 7.93848 1.58398C9.04586 0.565637 10.4956 0 12 0ZM20.7656 18.1523C20.4002 18.001 19.9973 17.9609 19.6094 18.0381C19.2216 18.1153 18.8656 18.3063 18.5859 18.5859C18.3062 18.8656 18.1153 19.2224 18.0381 19.6104C17.961 19.9982 18.001 20.4003 18.1523 20.7656C18.3037 21.131 18.5599 21.4434 18.8887 21.6631C19.2176 21.8828 19.6044 22 20 22C20.5304 22 21.039 21.7891 21.4141 21.4141C21.7891 21.039 22 20.5304 22 20C22 19.6045 21.8828 19.2175 21.6631 18.8887C21.4434 18.5599 21.1309 18.3037 20.7656 18.1523ZM4 18C3.60445 18 3.21756 18.1172 2.88867 18.3369C2.55988 18.5566 2.30374 18.8691 2.15234 19.2344C2.00097 19.5998 1.96092 20.0027 2.03809 20.3906C2.11529 20.7785 2.3063 21.1344 2.58594 21.4141C2.86557 21.6937 3.22153 21.8847 3.60938 21.9619C3.99734 22.0391 4.40017 21.999 4.76562 21.8477C5.13092 21.6963 5.44339 21.4401 5.66309 21.1113C5.88284 20.7824 6 20.3956 6 20C5.99998 19.4696 5.78912 18.961 5.41406 18.5859C5.03901 18.2109 4.5304 18 4 18ZM12 18C11.6045 18 11.2176 18.1172 10.8887 18.3369C10.5599 18.5566 10.3037 18.8691 10.1523 19.2344C10.001 19.5998 9.96092 20.0027 10.0381 20.3906C10.1153 20.7785 10.3063 21.1344 10.5859 21.4141C10.8656 21.6937 11.2215 21.8847 11.6094 21.9619C11.9973 22.0391 12.4002 21.999 12.7656 21.8477C13.1309 21.6963 13.4434 21.4401 13.6631 21.1113C13.8828 20.7824 14 20.3956 14 20C14 19.4696 13.7891 18.961 13.4141 18.5859C13.039 18.2109 12.5304 18 12 18ZM7 15C6.56409 15.0006 6.13347 15.0963 5.73828 15.2803C5.34296 15.4644 4.99207 15.733 4.71094 16.0664C5.64823 16.2352 6.49455 16.7327 7.09766 17.4697C7.66756 18.1664 7.98483 19.0338 8.00098 19.9307C8.01438 19.1581 8.25119 18.4012 8.68945 17.7549C9.23587 16.9492 10.0574 16.3703 11 16.127V15H7ZM13 15V16.127C13.9426 16.3703 14.7641 16.9492 15.3105 17.7549C15.7488 18.4012 15.9856 19.1581 15.999 19.9307C16.0145 19.0327 16.3318 18.1642 16.9023 17.4668C17.5055 16.7297 18.3518 16.2323 19.2891 16.0635C19.0077 15.7307 18.657 15.4629 18.2617 15.2793C17.8664 15.0957 17.4358 15.0003 17 15H13ZM12.7803 2.07715C12.0043 1.92281 11.1997 2.00194 10.4688 2.30469C9.7381 2.60743 9.11326 3.11978 8.67383 3.77734C8.23432 4.43512 8.00002 5.2089 8 6C8 7.06087 8.42173 8.07798 9.17188 8.82812C9.92202 9.57827 10.9391 10 12 10C12.7911 9.99998 13.5649 9.76568 14.2227 9.32617C14.8802 8.88674 15.3926 8.26189 15.6953 7.53125C15.9981 6.80035 16.0772 5.99565 15.9229 5.21973C15.7685 4.44382 15.3875 3.73128 14.8281 3.17188C14.2687 2.61247 13.5562 2.23149 12.7803 2.07715Z" stroke="white"/>
</g>
<defs>
<clipPath id="clip0_530_8356">
<rect width="24" height="24" fill="white"/>
</clipPath>
</defs>
</svg>
