<svg width="227" height="22" viewBox="0 0 227 22" fill="none" xmlns="http://www.w3.org/2000/svg">
<g clip-path="url(#clip0_41_3457)">
<path d="M16.1816 4.93943H19.8179L19.9605 6.97338H20.1275C20.6547 5.60928 21.9213 4.74805 23.6212 4.74805C24.0528 4.74805 24.3868 4.77244 24.6738 4.81935V8.43316C24.3155 8.38626 23.8839 8.33747 23.5255 8.33747C21.4672 8.33747 20.2476 9.31879 20.1988 11.6642V17.766H16.1797V4.93943H16.1816Z" fill="#0D0D0D"/>
<path d="M25.7041 11.3518C25.7041 7.28393 28.2409 4.72461 32.0198 4.72461C34.4835 4.72461 36.0877 5.63463 36.8289 6.94994H36.9959L37.116 4.94039H40.9437V17.7651H36.9002V15.7068H36.7332C35.9432 17.1178 34.1251 18.0034 32.0198 18.0034C28.239 18.0034 25.7041 15.4197 25.7041 11.3518ZM36.8777 11.6389V11.016C36.8777 9.22218 35.538 7.78678 33.2657 7.78678C31.1849 7.78678 29.772 9.05518 29.772 11.3518C29.772 13.6484 31.1605 14.9412 33.2657 14.9412C35.538 14.9412 36.8777 13.4815 36.8777 11.6389Z" fill="#0D0D0D"/>
<path d="M43.7939 4.93947H47.6704L47.8149 7.1648H48.0307C48.845 5.60932 50.7814 4.70117 52.7441 4.70117C56.0464 4.70117 58.3186 6.20787 58.3186 10.7298V17.7642H54.2995V11.4241C54.2995 9.07866 53.5096 7.76335 51.3574 7.76335C49.2053 7.76335 47.8168 9.24753 47.8168 11.3772V17.7661H43.7977V4.93947H43.7939Z" fill="#0D0D0D"/>
<path d="M60.4237 11.304C60.4237 7.18919 63.5102 4.70117 68.1279 4.70117C72.3384 4.70117 75.091 6.71072 75.3049 9.67721H71.3083C70.9968 8.48011 69.7772 7.78774 68.1016 7.78774C65.805 7.78774 64.4653 9.19874 64.4653 11.3284C64.4653 13.6494 65.8538 14.9178 68.0772 14.9178C69.6796 14.9178 70.9968 14.1992 71.3552 12.9552H75.3743C75.1341 16.0661 71.8806 17.98 67.9328 17.98C63.2907 17.98 60.4199 15.3719 60.4199 11.304H60.4237Z" fill="#0D0D0D"/>
<path d="M77.6504 0.322266H81.6695V7.18964H81.8853C82.6996 5.65856 84.5891 4.70163 86.5986 4.70163C89.901 4.70163 92.1732 6.20832 92.1732 10.7303V17.7647H88.1541V11.4245C88.1541 9.07911 87.3642 7.78819 85.212 7.78819C83.0599 7.78819 81.6714 9.27237 81.6714 11.3776V17.7665H77.6523V0.322266H77.6504Z" fill="#0D0D0D"/>
<path d="M95.3968 0.322266H98.6653C98.8717 0.322266 99.0406 0.491136 99.0406 0.697532V2.91348C99.0406 3.11988 98.8717 3.28875 98.6653 3.28875H95.3968C95.1904 3.28875 95.0215 3.11988 95.0215 2.91348V0.697532C95.0215 0.491136 95.1904 0.322266 95.3968 0.322266ZM95.3968 4.93992H98.6653C98.8717 4.93992 99.0406 5.10879 99.0406 5.31519V17.3894C99.0406 17.5958 98.8717 17.7647 98.6653 17.7647H95.3968C95.1904 17.7647 95.0215 17.5958 95.0215 17.3894V5.31519C95.0215 5.10879 95.1904 4.93992 95.3968 4.93992Z" fill="#0D0D0D"/>
<path d="M101.147 13.6963H105.071C105.191 14.9159 106.219 15.5633 108.182 15.5633C109.904 15.5633 110.91 15.1317 110.91 14.1523C110.91 13.0752 110.191 12.8839 107.823 12.6681C103.301 12.2365 101.579 11.3753 101.579 8.84036C101.579 6.30544 103.971 4.70117 108.111 4.70117C111.82 4.70117 114.212 6.16096 114.475 8.81597H110.67C110.525 7.66765 109.522 7.11789 108.086 7.11789C106.531 7.11789 105.478 7.54944 105.478 8.50637C105.478 9.4633 106.388 9.67908 108.685 9.89486C113.231 10.302 114.882 11.1145 114.882 13.914C114.882 16.3776 112.706 18.0062 108.064 18.0062C103.662 18.0062 101.316 16.3551 101.149 13.7001L101.147 13.6963Z" fill="#0D0D0D"/>
<path d="M116.413 11.4221C116.413 7.21163 119.475 4.69922 124.07 4.69922C128.951 4.69922 131.775 7.49871 131.463 12.2121H120.457C120.503 14.1259 121.916 15.2742 124.213 15.2742C125.96 15.2742 127.3 14.6288 127.634 13.6718H131.439C131.08 16.2556 128.065 17.978 124.117 17.978C119.428 17.978 116.413 15.5369 116.413 11.4221ZM120.385 10.0111H127.468C127.324 8.43124 126.153 7.4518 124.048 7.4518C121.943 7.4518 120.699 8.38434 120.387 10.0111H120.385Z" fill="#0D0D0D"/>
<path d="M134.184 0.322266H137.452C137.659 0.322266 137.828 0.491136 137.828 0.697532V17.3894C137.828 17.5958 137.659 17.7647 137.452 17.7647H134.184C133.977 17.7647 133.809 17.5958 133.809 17.3894V0.697532C133.809 0.491136 133.977 0.322266 134.184 0.322266Z" fill="#0D0D0D"/>
<path d="M141.074 0.322266H144.343C144.549 0.322266 144.718 0.491136 144.718 0.697532V2.91348C144.718 3.11988 144.549 3.28875 144.343 3.28875H141.074C140.868 3.28875 140.699 3.11988 140.699 2.91348V0.697532C140.699 0.491136 140.868 0.322266 141.074 0.322266ZM141.074 4.93992H144.343C144.549 4.93992 144.718 5.10879 144.718 5.31519V17.3894C144.718 17.5958 144.549 17.7647 144.343 17.7647H141.074C140.868 17.7647 140.699 17.5958 140.699 17.3894V5.31519C140.699 5.10879 140.868 4.93992 141.074 4.93992Z" fill="#0D0D0D"/>
<path d="M146.823 13.6963H150.747C150.867 14.9159 151.895 15.5633 153.858 15.5633C155.58 15.5633 156.586 15.1317 156.586 14.1523C156.586 13.0752 155.867 12.8839 153.499 12.6681C148.977 12.2365 147.255 11.3753 147.255 8.84036C147.255 6.30544 149.647 4.70117 153.786 4.70117C157.494 4.70117 159.888 6.16096 160.151 8.81597H156.346C156.203 7.66765 155.197 7.11789 153.762 7.11789C152.206 7.11789 151.154 7.54944 151.154 8.50637C151.154 9.4633 152.064 9.67908 154.36 9.89486C158.907 10.302 160.558 11.1145 160.558 13.914C160.558 16.3776 158.381 18.0062 153.739 18.0062C149.338 18.0062 146.992 16.3551 146.825 13.7001L146.823 13.6963Z" fill="#0D0D0D"/>
<path d="M164.005 14.5814V7.97861H161.612V4.94083H164.005V1.68351L167.977 0.917969V4.93707H171.159V7.97485H167.977V13.3111C167.977 14.1011 168.36 14.3394 169.15 14.3394H171.159V17.7618H167.498C165.369 17.7618 164.005 16.7561 164.005 14.5795V14.5814Z" fill="#0D0D0D"/>
<path d="M173.687 0.322266H176.955C177.162 0.322266 177.331 0.491136 177.331 0.697532V2.91348C177.331 3.11988 177.162 3.28875 176.955 3.28875H173.687C173.48 3.28875 173.312 3.11988 173.312 2.91348V0.697532C173.312 0.491136 173.48 0.322266 173.687 0.322266ZM173.687 4.93992H176.955C177.162 4.93992 177.331 5.10879 177.331 5.31519V17.3894C177.331 17.5958 177.162 17.7647 176.955 17.7647H173.687C173.48 17.7647 173.312 17.5958 173.312 17.3894V5.31519C173.312 5.10879 173.48 4.93992 173.687 4.93992Z" fill="#0D0D0D"/>
<path d="M180.203 4.93947H184.08L184.222 7.1648H184.438C185.252 5.60932 187.191 4.70117 189.151 4.70117C192.454 4.70117 194.726 6.20787 194.726 10.7298V17.7642H190.707V11.4241C190.707 9.07866 189.917 7.76335 187.765 7.76335C185.613 7.76335 184.224 9.24753 184.224 11.3772V17.7661H180.205V4.93947H180.203Z" fill="#0D0D0D"/>
<path d="M197.287 17.8824H201.115C201.331 18.8393 202.383 19.3422 204.057 19.3422C206.115 19.3422 207.479 18.6236 207.479 16.7585V14.7245H207.312C206.547 16.1599 204.704 16.9499 202.766 16.9499C199.177 16.9499 196.833 14.5088 196.833 10.8255C196.833 7.14228 199.274 4.70117 202.839 4.70117C204.897 4.70117 206.596 5.53802 207.361 6.87772H207.528L207.719 4.93947H211.5V16.2575C211.5 19.9426 209.037 21.9991 203.987 21.9991C199.824 21.9991 197.527 20.3967 197.289 17.8843L197.287 17.8824ZM207.479 11.1126V10.5628C207.479 8.84036 206.211 7.59635 204.226 7.59635C202.241 7.59635 200.901 8.86475 200.901 10.803C200.901 12.7413 202.194 14.0097 204.179 14.0097C206.164 14.0097 207.481 12.8126 207.481 11.1145L207.479 11.1126Z" fill="#0D0D0D"/>
<path d="M213.27 13.6963H217.193C217.313 14.9159 218.341 15.5633 220.304 15.5633C222.026 15.5633 223.032 15.1317 223.032 14.1523C223.032 13.0752 222.313 12.8839 219.946 12.6681C215.424 12.2365 213.701 11.3753 213.701 8.84036C213.701 6.30544 216.093 4.70117 220.233 4.70117C223.94 4.70117 226.334 6.16096 226.597 8.81597H222.792C222.649 7.66765 221.644 7.11789 220.208 7.11789C218.653 7.11789 217.6 7.54944 217.6 8.50637C217.6 9.4633 218.51 9.67908 220.807 9.89486C225.353 10.302 227.004 11.1145 227.004 13.914C227.004 16.3776 224.828 18.0062 220.186 18.0062C215.784 18.0062 213.438 16.3551 213.271 13.7001L213.27 13.6963Z" fill="#0D0D0D"/>
<path d="M13.8943 7.87819L12.6672 6.66045C12.609 6.60416 12.5321 6.57227 12.4514 6.57227H8.73438V9.66634H12.4476C12.5302 9.66634 12.609 9.63256 12.6672 9.5744L13.898 8.31163C14.0163 8.19154 14.0144 7.99828 13.8943 7.88007V7.87819Z" fill="#0DA2FF"/>
<path d="M1.53625 9.33008C1.45369 9.33008 1.37489 9.36385 1.31672 9.42202L0.0877241 10.6792C-0.0304848 10.7992 -0.0286085 10.9925 0.0896005 11.1107L1.3186 12.3341C1.37676 12.3904 1.45369 12.4242 1.53438 12.4242H4.61719V9.33008H1.53625Z" fill="#00DB62"/>
<path d="M11.9011 0H9.51441C6.29838 0 4.61719 1.16896 4.61719 3.82397V17.4518C4.61719 17.6206 4.75416 17.7576 4.92303 17.7576H8.42802C8.59689 17.7576 8.73386 17.6206 8.73386 17.4518V3.94593C8.73386 3.09407 9.19732 2.6794 10.1467 2.6794H11.9011C12.07 2.6794 12.207 2.54243 12.207 2.37356V0.305842C12.207 0.136972 12.07 0 11.9011 0Z" fill="#0D0D0D"/>
</g>
<defs>
<clipPath id="clip0_41_3457">
<rect width="227.004" height="22" fill="white"/>
</clipPath>
</defs>
</svg>
