<svg width="24" height="24" viewBox="0 0 24 24" fill="none" xmlns="http://www.w3.org/2000/svg">
<g clip-path="url(#clip0_530_8364)">
<path d="M11.9991 12C12.7902 12 13.5636 11.7654 14.2214 11.3259C14.8792 10.8864 15.3918 10.2616 15.6946 9.53073C15.9973 8.79983 16.0766 7.99556 15.9222 7.21964C15.7679 6.44371 15.3869 5.73098 14.8275 5.17157C14.2681 4.61216 13.5554 4.2312 12.7794 4.07686C12.0035 3.92252 11.1993 4.00173 10.4683 4.30448C9.73744 4.60723 9.11273 5.11992 8.6732 5.77772C8.23368 6.43552 7.99908 7.20887 7.99908 8C7.99908 9.06087 8.42051 10.0783 9.17065 10.8284C9.9208 11.5786 10.9382 12 11.9991 12ZM11.9991 6C12.3946 6 12.7813 6.1173 13.1102 6.33706C13.4391 6.55682 13.6955 6.86918 13.8468 7.23463C13.9982 7.60009 14.0378 8.00222 13.9607 8.39018C13.8835 8.77814 13.693 9.13451 13.4133 9.41421C13.1336 9.69392 12.7772 9.8844 12.3893 9.96157C12.0013 10.0387 11.5992 9.99913 11.2337 9.84776C10.8683 9.69638 10.5559 9.44004 10.3361 9.11114C10.1164 8.78224 9.99908 8.39556 9.99908 8C9.99908 7.46957 10.2098 6.96086 10.5849 6.58579C10.9599 6.21071 11.4686 6 11.9991 6ZM20.6591 9.157L19.9401 8.918C20.0695 7.79792 19.9606 6.66315 19.6207 5.58809C19.2807 4.51302 18.7174 3.52196 17.9676 2.67989C17.2178 1.83782 16.2984 1.16376 15.2698 0.701913C14.2412 0.240067 13.1266 0.000867481 11.9991 0C10.8568 0.000440969 9.72796 0.245694 8.6885 0.719235C7.64904 1.19278 6.72314 1.8836 5.9732 2.74518C5.22326 3.60675 4.66669 4.61905 4.34099 5.71387C4.01529 6.80869 3.92803 7.96061 4.08508 9.092C3.12811 9.27043 2.2432 9.72192 1.53708 10.392C1.04825 10.8567 0.659649 11.4166 0.395158 12.037C0.130666 12.6575 -0.00412194 13.3255 -0.000920855 14V18.075C0.00118074 19.1563 0.352871 20.208 1.00167 21.0731C1.65047 21.9381 2.56159 22.5702 3.59908 22.875L6.46908 23.775C6.95114 23.925 7.45321 24.0009 7.95808 24C8.41607 23.9994 8.87187 23.9368 9.31308 23.814L15.0931 22.104C15.608 21.9635 16.1512 21.9635 16.6661 22.104L19.0531 22.904C19.6414 23.0472 20.2545 23.055 20.8462 22.9267C21.438 22.7985 21.9929 22.5376 22.4691 22.1637C22.9454 21.7898 23.3305 21.3127 23.5955 20.7683C23.8606 20.2239 23.9985 19.6265 23.9991 19.021V13.872C23.9968 12.8374 23.6746 11.8288 23.0767 10.9845C22.4787 10.1402 21.6343 9.50155 20.6591 9.156V9.157ZM7.75708 3.762C8.31334 3.20349 8.97441 2.76032 9.70236 2.45793C10.4303 2.15554 11.2108 1.99988 11.9991 1.99988C12.7873 1.99988 13.5678 2.15554 14.2958 2.45793C15.0238 2.76032 15.6848 3.20349 16.2411 3.762C17.3632 4.89114 17.994 6.41782 17.9961 8.00974C17.9981 9.60166 17.3713 11.13 16.2521 12.262L12.6991 15.717C12.5136 15.8988 12.2643 16.0007 12.0046 16.0007C11.7449 16.0007 11.4955 15.8988 11.3101 15.717L7.75708 12.277C6.63255 11.1454 6.00139 9.61484 6.00139 8.0195C6.00139 6.42416 6.63255 4.89361 7.75708 3.762ZM21.9991 19.021C21.9997 19.3239 21.9312 19.6229 21.7988 19.8953C21.6664 20.1677 21.4736 20.4063 21.2351 20.593C21.0097 20.7742 20.7472 20.9035 20.4661 20.9718C20.1851 21.0401 19.8925 21.0456 19.6091 20.988L17.2641 20.2C16.3771 19.9452 15.437 19.9396 14.5471 20.184L8.76308 21.892C8.20736 22.0453 7.61923 22.0352 7.06908 21.863L4.17508 20.963C3.54873 20.7819 2.99804 20.4025 2.60568 19.8817C2.21332 19.361 2.00047 18.727 1.99908 18.075V14C1.99683 13.5958 2.07729 13.1954 2.2355 12.8234C2.39372 12.4514 2.62634 12.1157 2.91908 11.837C3.37734 11.4003 3.9611 11.1184 4.58808 11.031C4.99118 12.0302 5.59146 12.9379 6.35308 13.7L9.92008 17.153C10.4776 17.6989 11.2268 18.0046 12.0071 18.0046C12.7874 18.0046 13.5366 17.6989 14.0941 17.153L17.6571 13.69C18.4548 12.889 19.0729 11.9274 19.4701 10.869L20.0071 11.047C20.5895 11.2557 21.0933 11.639 21.4498 12.1445C21.8063 12.6501 21.9981 13.2534 21.9991 13.872V19.021Z" fill="#6D758F"/>
</g>
<defs>
<clipPath id="clip0_530_8364">
<rect width="24" height="24" fill="white"/>
</clipPath>
</defs>
</svg>
