<svg width="15" height="15" viewBox="0 0 15 15" fill="none" xmlns="http://www.w3.org/2000/svg">
<path d="M14.2288 2.85255C14.0004 2.75741 13.7488 2.73241 13.5062 2.78071C13.2636 2.82902 13.0408 2.94845 12.8663 3.1238L11.25 4.74005L8.38375 1.8738C8.14934 1.63946 7.83146 1.50781 7.5 1.50781C7.16854 1.50781 6.85066 1.63946 6.61625 1.8738L3.75 4.74005L2.13375 3.1238C1.95894 2.94903 1.73623 2.83003 1.49379 2.78182C1.25135 2.73361 1.00006 2.75836 0.771682 2.85295C0.543307 2.94754 0.348103 3.10771 0.210748 3.31322C0.0733926 3.51873 5.27804e-05 3.76036 0 4.00755L0 10.6238C0.000992411 11.4523 0.330551 12.2466 0.916387 12.8324C1.50222 13.4182 2.2965 13.7478 3.125 13.7488H11.875C12.7035 13.7478 13.4978 13.4182 14.0836 12.8324C14.6694 12.2466 14.999 11.4523 15 10.6238V4.00755C15.0001 3.76034 14.9268 3.51866 14.7895 3.31308C14.6523 3.10749 14.4571 2.94723 14.2288 2.85255ZM13.75 10.6238C13.75 11.1211 13.5525 11.598 13.2008 11.9496C12.8492 12.3013 12.3723 12.4988 11.875 12.4988H3.125C2.62772 12.4988 2.15081 12.3013 1.79917 11.9496C1.44754 11.598 1.25 11.1211 1.25 10.6238V4.00755L3.30813 6.06567C3.42533 6.18284 3.58427 6.24866 3.75 6.24866C3.91573 6.24866 4.07467 6.18284 4.19187 6.06567L7.5 2.75755L10.8081 6.06567C10.9253 6.18284 11.0843 6.24866 11.25 6.24866C11.4157 6.24866 11.5747 6.18284 11.6919 6.06567L13.75 4.00755V10.6238Z" fill="white"/>
</svg>
