<svg width="24" height="24" viewBox="0 0 24 24" fill="none" xmlns="http://www.w3.org/2000/svg">
<g clip-path="url(#clip0_530_8382)">
<path d="M23.2706 9.42025C21.7196 6.89425 18.1916 2.65625 11.9996 2.65625C5.80756 2.65625 2.27956 6.89425 0.728563 9.42025C0.249091 10.1958 -0.00488281 11.0895 -0.00488281 12.0013C-0.00488281 12.913 0.249091 13.8067 0.728563 14.5823C2.27956 17.1083 5.80756 21.3462 11.9996 21.3462C18.1916 21.3462 21.7196 17.1083 23.2706 14.5823C23.75 13.8067 24.004 12.913 24.004 12.0013C24.004 11.0895 23.75 10.1958 23.2706 9.42025ZM21.5656 13.5353C20.2336 15.7013 17.2186 19.3462 11.9996 19.3462C6.78056 19.3462 3.76556 15.7013 2.43356 13.5353C2.1487 13.0743 1.99781 12.5431 1.99781 12.0013C1.99781 11.4594 2.1487 10.9282 2.43356 10.4672C3.76556 8.30125 6.78056 4.65625 11.9996 4.65625C17.2186 4.65625 20.2336 8.29725 21.5656 10.4672C21.8504 10.9282 22.0013 11.4594 22.0013 12.0013C22.0013 12.5431 21.8504 13.0743 21.5656 13.5353Z" fill="#6D758F"/>
<path d="M12 7C11.0111 7 10.0444 7.29324 9.22215 7.84265C8.39991 8.39206 7.75904 9.17295 7.3806 10.0866C7.00217 11.0002 6.90315 12.0055 7.09608 12.9755C7.289 13.9454 7.76521 14.8363 8.46447 15.5355C9.16373 16.2348 10.0546 16.711 11.0246 16.9039C11.9945 17.0969 12.9998 16.9978 13.9134 16.6194C14.827 16.241 15.6079 15.6001 16.1574 14.7779C16.7068 13.9556 17 12.9889 17 12C16.9984 10.6744 16.4711 9.40356 15.5338 8.46622C14.5964 7.52888 13.3256 7.00159 12 7ZM12 15C11.4067 15 10.8266 14.8241 10.3333 14.4944C9.83994 14.1648 9.45543 13.6962 9.22836 13.1481C9.0013 12.5999 8.94189 11.9967 9.05765 11.4147C9.1734 10.8328 9.45912 10.2982 9.87868 9.87868C10.2982 9.45912 10.8328 9.1734 11.4147 9.05764C11.9967 8.94189 12.5999 9.0013 13.1481 9.22836C13.6962 9.45542 14.1648 9.83994 14.4944 10.3333C14.8241 10.8266 15 11.4067 15 12C15 12.7957 14.6839 13.5587 14.1213 14.1213C13.5587 14.6839 12.7957 15 12 15Z" fill="#6D758F"/>
</g>
<defs>
<clipPath id="clip0_530_8382">
<rect width="24" height="24" fill="white"/>
</clipPath>
</defs>
</svg>
