<svg width="15" height="16" viewBox="0 0 15 16" fill="none" xmlns="http://www.w3.org/2000/svg">
<g clip-path="url(#clip0_530_8424)">
<path d="M10.625 9.25001C10.625 9.41577 10.5592 9.57475 10.4419 9.69196C10.3247 9.80917 10.1658 9.87501 10 9.87501H5C4.83424 9.87501 4.67527 9.80917 4.55806 9.69196C4.44085 9.57475 4.375 9.41577 4.375 9.25001C4.375 9.08425 4.44085 8.92528 4.55806 8.80807C4.67527 8.69086 4.83424 8.62501 5 8.62501H10C10.1658 8.62501 10.3247 8.69086 10.4419 8.80807C10.5592 8.92528 10.625 9.08425 10.625 9.25001ZM8.125 11.125H5C4.83424 11.125 4.67527 11.1909 4.55806 11.3081C4.44085 11.4253 4.375 11.5843 4.375 11.75C4.375 11.9158 4.44085 12.0747 4.55806 12.192C4.67527 12.3092 4.83424 12.375 5 12.375H8.125C8.29076 12.375 8.44973 12.3092 8.56694 12.192C8.68415 12.0747 8.75 11.9158 8.75 11.75C8.75 11.5843 8.68415 11.4253 8.56694 11.3081C8.44973 11.1909 8.29076 11.125 8.125 11.125ZM13.75 7.05314V12.375C13.749 13.2035 13.4194 13.9978 12.8336 14.5836C12.2478 15.1695 11.4535 15.499 10.625 15.5H4.375C3.5465 15.499 2.75222 15.1695 2.16639 14.5836C1.58055 13.9978 1.25099 13.2035 1.25 12.375V3.62501C1.25099 2.79652 1.58055 2.00224 2.16639 1.4164C2.75222 0.830566 3.5465 0.501007 4.375 0.500014H7.19688C7.77164 0.498535 8.34099 0.611007 8.87201 0.830926C9.40304 1.05085 9.8852 1.37385 10.2906 1.78126L12.4681 3.96001C12.8758 4.36516 13.199 4.84718 13.419 5.37812C13.6391 5.90907 13.7516 6.4784 13.75 7.05314ZM9.40687 2.66501C9.21018 2.47449 8.98933 2.31059 8.75 2.17751V4.87501C8.75 5.04077 8.81585 5.19975 8.93306 5.31696C9.05027 5.43417 9.20924 5.50001 9.375 5.50001H12.0725C11.9393 5.26076 11.7752 5.04011 11.5844 4.84376L9.40687 2.66501ZM12.5 7.05314C12.5 6.95001 12.48 6.85126 12.4706 6.75001H9.375C8.87772 6.75001 8.40081 6.55247 8.04917 6.20084C7.69754 5.84921 7.5 5.3723 7.5 4.87501V1.77939C7.39875 1.77001 7.29938 1.75001 7.19688 1.75001H4.375C3.87772 1.75001 3.40081 1.94756 3.04917 2.29919C2.69754 2.65082 2.5 3.12773 2.5 3.62501V12.375C2.5 12.8723 2.69754 13.3492 3.04917 13.7008C3.40081 14.0525 3.87772 14.25 4.375 14.25H10.625C11.1223 14.25 11.5992 14.0525 11.9508 13.7008C12.3025 13.3492 12.5 12.8723 12.5 12.375V7.05314Z" fill="#535364"/>
</g>
<defs>
<clipPath id="clip0_530_8424">
<rect width="15" height="15" fill="white" transform="translate(0 0.5)"/>
</clipPath>
</defs>
</svg>
