<svg width="15" height="16" viewBox="0 0 15 16" fill="none" xmlns="http://www.w3.org/2000/svg">
<g clip-path="url(#clip0_530_8394)">
<path d="M14.4506 6.16649L9.71001 1.42524C9.12329 0.840228 8.32855 0.511719 7.50001 0.511719C6.67147 0.511719 5.87673 0.840228 5.29001 1.42524L0.549383 6.16649C0.374648 6.3401 0.236114 6.54667 0.141809 6.77423C0.0475045 7.00178 -0.000694 7.24579 7.54968e-06 7.49211V13.6277C7.54968e-06 14.125 0.197552 14.6019 0.549182 14.9536C0.900813 15.3052 1.37773 15.5027 1.87501 15.5027H13.125C13.6223 15.5027 14.0992 15.3052 14.4508 14.9536C14.8025 14.6019 15 14.125 15 13.6277V7.49211C15.0007 7.24579 14.9525 7.00178 14.8582 6.77423C14.7639 6.54667 14.6254 6.3401 14.4506 6.16649ZM9.37501 14.2527H5.62501V11.794C5.62501 11.2967 5.82255 10.8198 6.17418 10.4682C6.52581 10.1165 7.00273 9.91899 7.50001 9.91899C7.99729 9.91899 8.4742 10.1165 8.82583 10.4682C9.17746 10.8198 9.37501 11.2967 9.37501 11.794V14.2527ZM13.75 13.6277C13.75 13.7935 13.6842 13.9525 13.567 14.0697C13.4497 14.1869 13.2908 14.2527 13.125 14.2527H10.625V11.794C10.625 10.9652 10.2958 10.1703 9.70972 9.58428C9.12367 8.99823 8.32881 8.66899 7.50001 8.66899C6.67121 8.66899 5.87635 8.99823 5.2903 9.58428C4.70425 10.1703 4.37501 10.9652 4.37501 11.794V14.2527H1.87501C1.70925 14.2527 1.55028 14.1869 1.43307 14.0697C1.31586 13.9525 1.25001 13.7935 1.25001 13.6277V7.49211C1.25059 7.32647 1.31638 7.16773 1.43313 7.05023L6.17376 2.31086C6.52607 1.96019 7.00292 1.76332 7.50001 1.76332C7.99709 1.76332 8.47395 1.96019 8.82626 2.31086L13.5669 7.05211C13.6832 7.16914 13.7489 7.32712 13.75 7.49211V13.6277Z" fill="#535364"/>
</g>
<defs>
<clipPath id="clip0_530_8394">
<rect width="15" height="15" fill="white" transform="translate(0 0.5)"/>
</clipPath>
</defs>
</svg>
