<svg width="15" height="16" viewBox="0 0 15 16" fill="none" xmlns="http://www.w3.org/2000/svg">
<g clip-path="url(#clip0_530_8399)">
<path d="M8.75042 15.5C8.61518 15.5 8.4836 15.4561 8.37541 15.375L5.87541 13.5C5.79779 13.4418 5.73479 13.3663 5.6914 13.2795C5.64801 13.1927 5.62541 13.097 5.62541 13V9.4875L1.24042 4.55438C0.92899 4.20305 0.725652 3.76926 0.65484 3.30515C0.584028 2.84103 0.648755 2.36634 0.841242 1.93813C1.03373 1.50992 1.34578 1.14641 1.7399 0.891291C2.13402 0.63617 2.59343 0.500297 3.06292 0.5H11.9379C12.4074 0.500551 12.8667 0.63665 13.2606 0.891942C13.6546 1.14723 13.9664 1.51086 14.1587 1.93912C14.351 2.36737 14.4155 2.84205 14.3445 3.30609C14.2735 3.77014 14.0701 4.20381 13.7585 4.555L9.37542 9.4875V14.875C9.37542 15.0408 9.30957 15.1997 9.19236 15.3169C9.07515 15.4342 8.91618 15.5 8.75042 15.5ZM6.87542 12.6875L8.12542 13.625V9.25C8.12554 9.09697 8.1818 8.94931 8.28354 8.835L12.826 3.72438C12.9775 3.55318 13.0763 3.3419 13.1107 3.11591C13.145 2.88992 13.1134 2.65881 13.0196 2.45035C12.9259 2.24188 12.7739 2.06491 12.582 1.94068C12.3902 1.81645 12.1665 1.75024 11.9379 1.75H3.06292C2.83445 1.75035 2.61093 1.81659 2.41917 1.94079C2.22741 2.06499 2.07554 2.24187 1.98179 2.45022C1.88804 2.65857 1.85639 2.88954 1.89062 3.11543C1.92485 3.34131 2.02352 3.55253 2.17479 3.72375L6.71792 8.835C6.81942 8.9494 6.87546 9.09706 6.87542 9.25V12.6875Z" fill="#535364"/>
</g>
<defs>
<clipPath id="clip0_530_8399">
<rect width="15" height="15" fill="white" transform="translate(0 0.5)"/>
</clipPath>
</defs>
</svg>
