<svg width="15" height="16" viewBox="0 0 15 16" fill="none" xmlns="http://www.w3.org/2000/svg">
<g clip-path="url(#clip0_530_8414)">
<path d="M14.8164 14.4336L11.0857 10.703C12.1024 9.4596 12.6022 7.87303 12.4819 6.27145C12.3616 4.66987 11.6303 3.17581 10.4392 2.0983C9.24822 1.02079 7.68862 0.442282 6.08302 0.482427C4.47743 0.522572 2.94869 1.1783 1.81301 2.31398C0.677325 3.44966 0.0215949 4.97841 -0.0185499 6.584C-0.0586948 8.18959 0.519817 9.7492 1.59732 10.9402C2.67483 12.1312 4.16889 12.8625 5.77047 12.9829C7.37206 13.1032 8.95862 12.6034 10.202 11.5867L13.9326 15.3174C14.0505 15.4312 14.2084 15.4942 14.3722 15.4928C14.5361 15.4913 14.6929 15.4256 14.8088 15.3097C14.9246 15.1939 14.9904 15.0371 14.9918 14.8732C14.9932 14.7094 14.9302 14.5515 14.8164 14.4336ZM6.2495 11.7505C5.26059 11.7505 4.29389 11.4572 3.47165 10.9078C2.6494 10.3584 2.00854 9.57752 1.6301 8.66389C1.25166 7.75026 1.15264 6.74493 1.34557 5.77502C1.5385 4.80512 2.0147 3.9142 2.71396 3.21494C3.41323 2.51568 4.30414 2.03947 5.27405 1.84655C6.24395 1.65362 7.24928 1.75264 8.16292 2.13108C9.07655 2.50951 9.85744 3.15038 10.4068 3.97262C10.9563 4.79487 11.2495 5.76157 11.2495 6.75047C11.248 8.0761 10.7207 9.347 9.78339 10.2844C8.84603 11.2217 7.57512 11.749 6.2495 11.7505Z" fill="#535364"/>
</g>
<defs>
<clipPath id="clip0_530_8414">
<rect width="15" height="15" fill="white" transform="translate(0 0.5)"/>
</clipPath>
</defs>
</svg>
