<svg width="20" height="25" viewBox="0 0 20 25" fill="none" xmlns="http://www.w3.org/2000/svg">
<path d="M19.5612 11.0925L17.8336 9.37806C17.7518 9.29881 17.6435 9.25391 17.5299 9.25391H12.2969V13.6099H17.5246C17.6408 13.6099 17.7518 13.5623 17.8336 13.4804L19.5665 11.7027C19.7329 11.5336 19.7303 11.2615 19.5612 11.0951V11.0925Z" fill="#0DA2FF"/>
<path d="M2.16281 13.1367C2.04658 13.1367 1.93563 13.1843 1.85374 13.2662L0.123502 15.036C-0.042918 15.2051 -0.0402764 15.4772 0.126144 15.6436L1.85638 17.3659C1.93827 17.4451 2.04658 17.4927 2.16017 17.4927H6.5003V13.1367H2.16281Z" fill="#00DB62"/>
<path d="M16.7546 0H13.3945C8.86686 0 6.5 1.64571 6.5 5.38356V24.5694C6.5 24.8072 6.69284 25 6.93058 25H11.8651C12.1028 25 12.2956 24.8072 12.2956 24.5694V5.55526C12.2956 4.35598 12.9481 3.77219 14.2848 3.77219H16.7546C16.9924 3.77219 17.1852 3.57935 17.1852 3.34161V0.430579C17.1852 0.192836 16.9924 0 16.7546 0Z" fill="#0D0D0D"/>
</svg>
